<?xml version="1.0" encoding="UTF-8"?>
<svg xmlns="http://www.w3.org/2000/svg" viewBox="0 0 32 32">
  <!-- Background -->
  <rect width="32" height="32" rx="6" fill="#c7e8d8"/>
  <!-- Face graphic centered: original viewBox 30.67x21.77, centered in 32x32 -->
  <g transform="translate(0.665, 5.115)">
    <!-- Blush gradients -->
    <ellipse cx="15.34" cy="12.95" rx="4.02" ry="4.17" fill="#ffaeae" opacity="0.3"/>
    <path d="M21.44,13.2c-.07,2.09,1.66,3.53,3.87,3.21,2.21-.32,4.06-2.28,4.13-4.38s-1.66-3.53-3.87-3.21-4.06,2.28-4.13,4.38Z" fill="#ffaeae" opacity="0.3"/>
    <path d="M9.23,13.2c.07,2.09-1.66,3.53-3.87,3.21-2.21-.32-4.06-2.28-4.13-4.38-.07-2.09,1.66-3.53,3.87-3.21s4.06,2.28,4.13,4.38Z" fill="#ffaeae" opacity="0.3"/>
    <!-- Face strokes -->
    <g fill="none" stroke="#3a2300" stroke-linecap="round" stroke-linejoin="round" stroke-width="1.1">
      <path d="M15.34,20.28c-1.35.64-2.86,1-4.45,1-5.74-.01-10.39-4.66-10.39-10.39S5.15.5,10.89.5c1.59,0,3.1.36,4.45,1"/>
      <path d="M15.34,1.5c1.35-.64,2.86-1,4.45-1,5.74,0,10.39,4.65,10.39,10.39s-4.65,10.39-10.39,10.39c-1.59,0-3.1-.36-4.45-1"/>
      <path d="M17.64,18.78c-.69.59-1.47,1.1-2.3,1.49"/>
      <path d="M13.04,2.99c.69-.59,1.47-1.1,2.3-1.49"/>
      <path d="M25.91,10.31c-.94.51-1.91.51-2.99.17"/>
      <path d="M26.52,7.59c-1.16-.77-3.43-.67-4.8.19-2.45,1.52-.78,4.85.33,6,1.03,1.07-1.22,1.79-2.52,1.66"/>
      <path d="M13.72,10.56c.47.18,1.14.27,1.62.27s1.15-.08,1.62-.27"/>
      <path d="M4.77,10.31c.94.51,1.91.51,2.99.17"/>
      <path d="M4.17,7.59c1.16-.77,3.43-.67,4.8.19,2.45,1.52.78,4.85-.33,6-1.03,1.07,1.22,1.79,2.52,1.66"/>
      <path d="M13.15,7.72c.62-.37,1.47-.51,2.19-.52h0c.72.01,1.56.15,2.19.52"/>
    </g>
  </g>
</svg>
