<?xml version="1.0" encoding="UTF-8"?><svg xmlns="http://www.w3.org/2000/svg" xmlns:xlink="http://www.w3.org/1999/xlink" viewBox="0 0 42 38.3"><defs><style>.cls-1{fill:url(#radial-gradient-3);}.cls-1,.cls-2,.cls-3{opacity:.3;}.cls-2{fill:url(#radial-gradient-2);}.cls-3{fill:url(#radial-gradient);}.cls-4{fill:#3a2300;}.cls-5{fill:none;stroke:#3a2300;stroke-linecap:round;stroke-linejoin:round;stroke-width:.6px;}</style><radialGradient id="radial-gradient" cx="21.05" cy="-7.79" fx="21.05" fy="-7.79" r="2.84" gradientTransform="translate(-8.73 24.4) scale(1.42 1.47)" gradientUnits="userSpaceOnUse"><stop offset="0" stop-color="#ffd4d6"/><stop offset=".16" stop-color="#fed4d6" stop-opacity=".99"/><stop offset=".29" stop-color="#fcd5d6" stop-opacity=".95"/><stop offset=".41" stop-color="#f8d6d6" stop-opacity=".88"/><stop offset=".52" stop-color="#f3d8d6" stop-opacity=".79"/><stop offset=".63" stop-color="#ecdad6" stop-opacity=".66"/><stop offset=".74" stop-color="#e3ddd6" stop-opacity=".51"/><stop offset=".84" stop-color="#d9e1d7" stop-opacity=".34"/><stop offset=".94" stop-color="#cee5d7" stop-opacity=".14"/><stop offset="1" stop-color="#c7e8d8" stop-opacity="0"/></radialGradient><radialGradient id="radial-gradient-2" cx="480.67" cy="-66.67" fx="480.67" fy="-66.67" gradientTransform="translate(705.68 2.87) rotate(171.7) scale(1.42 -1.32) skewX(9.53)" xlink:href="#radial-gradient"/><radialGradient id="radial-gradient-3" cx="480.95" cy="-66.71" fx="480.95" fy="-66.71" r="2.84" gradientTransform="translate(-663.85 2.87) rotate(8.3) scale(1.42 1.32) skewX(9.53)" xlink:href="#radial-gradient"/></defs><g id="Layer_3"><ellipse class="cls-3" cx="21.11" cy="12.95" rx="4.02" ry="4.17"/><path class="cls-2" d="M27.22,13.2c-.07,2.09,1.66,3.53,3.87,3.21,2.21-.32,4.06-2.28,4.13-4.38s-1.66-3.53-3.87-3.21-4.06,2.28-4.13,4.38Z"/><path class="cls-1" d="M15,13.2c.07,2.09-1.66,3.53-3.87,3.21-2.21-.32-4.06-2.28-4.13-4.38-.07-2.09,1.66-3.53,3.87-3.21s4.06,2.28,4.13,4.38Z"/></g><g id="Layer_1"><path class="cls-4" d="M1.67,31.17c-.2,0-.39-.03-.56-.08-.17-.05-.33-.13-.47-.24s-.27-.24-.38-.4l.39-.45c.17.25.34.42.5.52s.35.14.57.14c.13,0,.26-.02.37-.06.11-.04.2-.1.26-.18.06-.07.1-.16.1-.26,0-.06-.01-.12-.03-.18s-.05-.11-.1-.15c-.04-.05-.1-.09-.17-.13-.07-.04-.15-.07-.24-.1-.09-.03-.2-.06-.32-.08-.19-.04-.36-.09-.5-.15-.14-.06-.26-.14-.36-.24-.1-.1-.17-.2-.21-.33-.05-.12-.07-.26-.07-.41s.03-.29.1-.42c.07-.13.16-.24.27-.33s.25-.17.41-.22c.16-.05.32-.08.51-.08.19,0,.37.03.53.08s.3.12.43.22c.12.1.23.22.31.36l-.4.4c-.07-.12-.15-.22-.24-.29-.09-.08-.19-.14-.29-.18-.11-.04-.22-.06-.34-.06-.14,0-.26.02-.36.06-.1.04-.18.1-.24.18-.06.08-.09.17-.09.27,0,.07.01.14.04.2.03.06.07.12.13.17s.14.09.24.13c.1.04.22.07.36.1.2.04.37.1.52.16s.28.14.39.23c.11.09.19.19.24.3s.08.23.08.36c0,.24-.06.44-.17.62s-.27.31-.47.4-.44.14-.72.14Z"/><path class="cls-4" d="M4.37,31.12v-3.72h2.35v.55h-1.77v2.62h1.77v.55h-2.35ZM4.63,29.48v-.55h1.79v.55h-1.79Z"/><path class="cls-4" d="M8.17,31.12v-3.72h.57v3.17h1.75v.55h-2.32Z"/><path class="cls-4" d="M11.89,31.12v-3.72h.57v3.72h-.57ZM12.15,27.95v-.55h2.16v.55h-2.16ZM12.15,29.53v-.55h1.92v.55h-1.92Z"/><path class="cls-4" d="M18.35,31.12v-3.17h-1.04v-.55h2.69v.55h-1.07v3.17h-.58Z"/><path class="cls-4" d="M22.8,31.17c-.26,0-.5-.05-.73-.14s-.42-.23-.58-.4c-.17-.17-.29-.37-.38-.61-.09-.23-.14-.49-.14-.76s.05-.53.14-.76c.09-.23.22-.43.38-.61.16-.17.36-.31.58-.4.22-.1.46-.14.73-.14s.5.05.73.14c.22.1.42.23.58.4.17.17.29.38.38.61.09.23.14.49.14.76s-.04.53-.14.76c-.09.23-.22.44-.38.61-.17.17-.36.31-.58.4s-.46.14-.73.14ZM22.8,30.61c.18,0,.35-.03.5-.1.15-.07.28-.16.39-.28.11-.12.2-.27.26-.43.06-.17.09-.34.09-.54s-.03-.38-.09-.54c-.06-.17-.15-.31-.26-.43-.11-.12-.24-.22-.39-.28-.15-.07-.32-.1-.5-.1s-.35.03-.5.1c-.15.07-.28.16-.39.28-.11.12-.2.26-.26.43s-.09.35-.09.54.03.38.09.54.15.31.26.43c.11.12.24.21.39.28.15.07.32.1.5.1Z"/><path class="cls-4" d="M29.1,31.17c-.2,0-.39-.03-.56-.08-.17-.05-.33-.13-.47-.24-.14-.11-.26-.24-.38-.4l.39-.45c.17.25.34.42.5.52.16.1.35.14.57.14.13,0,.26-.02.37-.06.11-.04.2-.1.26-.18.06-.07.1-.16.1-.26,0-.06-.01-.12-.03-.18-.02-.06-.05-.11-.1-.15-.04-.05-.1-.09-.17-.13-.07-.04-.15-.07-.24-.1-.09-.03-.2-.06-.32-.08-.19-.04-.36-.09-.5-.15-.14-.06-.26-.14-.36-.24s-.17-.2-.21-.33c-.05-.12-.07-.26-.07-.41s.03-.29.1-.42.16-.24.27-.33.25-.17.41-.22c.16-.05.33-.08.51-.08.19,0,.37.03.53.08.16.05.3.12.43.22s.23.22.31.36l-.4.4c-.07-.12-.15-.22-.24-.29-.09-.08-.19-.14-.29-.18-.11-.04-.22-.06-.34-.06-.14,0-.26.02-.36.06-.1.04-.18.1-.24.18s-.09.17-.09.27c0,.07.01.14.04.2.03.06.07.12.13.17s.14.09.24.13c.1.04.22.07.36.1.19.04.37.1.52.16.15.07.28.14.39.23s.19.19.24.3.08.23.08.36c0,.24-.06.44-.17.62-.11.17-.27.31-.47.4s-.44.14-.72.14Z"/><path class="cls-4" d="M31.81,31.12v-3.72h2.35v.55h-1.77v2.62h1.77v.55h-2.35ZM32.07,29.48v-.55h1.79v.55h-1.79Z"/><path class="cls-4" d="M35.6,31.12v-3.72h.57v3.17h1.75v.55h-2.32Z"/><path class="cls-4" d="M39.32,31.12v-3.72h.57v3.72h-.57ZM39.58,27.95v-.55h2.16v.55h-2.16ZM39.58,29.53v-.55h1.92v.55h-1.92Z"/><path class="cls-4" d="M11.83,37.36v-2.22h-.77v-.46h2.06v.46h-.79v2.22h-.5Z"/><path class="cls-4" d="M14,37.36v-2.69h.5v2.69h-.5ZM14.2,36.25v-.47h1.76v.47h-1.76ZM15.72,37.36v-2.69h.5v2.69h-.5Z"/><path class="cls-4" d="M17.33,37.36v-2.69h1.76v.45h-1.27v1.78h1.28v.45h-1.77ZM17.56,36.21v-.44h1.33v.44h-1.33Z"/><path class="cls-4" d="M20.11,37.36v-2.69h1.17c.16,0,.31.04.44.11s.24.18.32.31c.08.13.12.27.12.44s-.04.29-.12.42c-.08.13-.18.23-.31.31-.13.08-.28.11-.44.11h-.68v.99h-.49ZM20.59,35.94h.68c.07,0,.14-.02.19-.05.05-.03.1-.08.13-.14.03-.06.05-.13.05-.2,0-.08-.02-.16-.06-.22-.04-.06-.09-.11-.16-.15-.07-.04-.15-.05-.24-.05h-.59v.82ZM21.66,37.36l-.68-1.21.51-.1.76,1.31h-.59Z"/><path class="cls-4" d="M22.79,37.36l1.05-2.69h.47l1.04,2.69h-.52l-.58-1.53s-.03-.08-.05-.15c-.02-.07-.05-.14-.07-.22s-.05-.15-.07-.22c-.02-.07-.04-.12-.05-.15h.1s-.03.11-.05.17-.04.13-.07.2c-.02.07-.04.14-.07.2-.02.06-.04.12-.06.17l-.58,1.52h-.5ZM23.26,36.74l.17-.43h1.22l.18.43h-1.58Z"/><path class="cls-4" d="M26.07,37.36v-2.69h1.12c.15,0,.29.04.42.11s.22.17.3.3.11.27.11.43-.04.31-.11.44c-.07.13-.17.23-.3.31-.12.08-.26.12-.42.12h-.62v.98h-.5ZM26.57,35.92h.58c.06,0,.12-.02.17-.05.05-.04.09-.08.13-.14.03-.06.05-.13.05-.2s-.02-.14-.05-.2c-.03-.06-.07-.1-.13-.14-.05-.04-.11-.05-.17-.05h-.58v.78Z"/><path class="cls-4" d="M29.56,37.36v-1.34l.03.19-1.08-1.53h.58l.83,1.19h-.18s.75-1.19.75-1.19h.56l-1.04,1.58.06-.26v1.37h-.5Z"/><path class="cls-5" d="M21,20.08c-1.35.64-2.86,1-4.45,1-5.74,0-10.39-4.65-10.39-10.39S10.81.3,16.55.3c1.59,0,3.1.36,4.45,1"/><path class="cls-5" d="M24.29,17.62c-.92,1.02-2.03,1.86-3.29,2.46"/><path class="cls-5" d="M17.71,3.76c.92-1.02,2.03-1.86,3.29-2.46"/><path class="cls-5" d="M21,1.3c1.35-.64,2.86-1,4.45-1,5.74,0,10.39,4.65,10.39,10.39s-4.65,10.39-10.39,10.39c-1.59,0-3.1-.36-4.45-1"/><path class="cls-5" d="M21,10.63c.48,0,1.15-.08,1.62-.27"/><path class="cls-5" d="M31.57,10.11c-.94.51-1.91.51-2.99.17"/><path class="cls-5" d="M32.17,7.39c-1.16-.77-3.43-.67-4.8.19-2.45,1.52-.78,4.85.33,6,1.03,1.07-1.22,1.79-2.52,1.66"/><path class="cls-5" d="M23.19,7.52c-.62-.37-1.47-.51-2.19-.52"/><path class="cls-5" d="M21,10.63c-.48,0-1.15-.08-1.62-.27"/><path class="cls-5" d="M10.43,10.11c.94.51,1.91.51,2.99.17"/><path class="cls-5" d="M9.83,7.39c1.16-.77,3.43-.67,4.8.19,2.45,1.52.78,4.85-.33,6-1.03,1.07,1.22,1.79,2.52,1.66"/><path class="cls-5" d="M18.81,7.52c.62-.37,1.47-.51,2.19-.52"/></g></svg>