<?xml version="1.0" encoding="UTF-8"?>
<svg id="Isolation_Mode" xmlns="http://www.w3.org/2000/svg" xmlns:xlink="http://www.w3.org/1999/xlink" version="1.1" viewBox="0 0 42 38.3">
  <!-- Generator: Adobe Illustrator 30.2.1, SVG Export Plug-In . SVG Version: 2.1.1 Build 1)  -->
  <defs>
    <style>
      .st0 {
        fill: url(#radial-gradient);
      }

      .st0, .st1, .st2, .st3 {
        isolation: isolate;
      }

      .st0, .st2, .st3 {
        opacity: .3;
      }

      .st4 {
        fill: none;
        stroke: #3a2300;
        stroke-linecap: round;
        stroke-linejoin: round;
        stroke-width: .6px;
      }

      .st2 {
        fill: url(#radial-gradient1);
      }

      .st3 {
        fill: url(#radial-gradient2);
      }

      .st5 {
        fill: #3a2300;
      }
    </style>
    <radialGradient id="radial-gradient" cx="-36.33" cy="87.44" fx="-36.33" fy="87.44" r="2.84" gradientTransform="translate(72.75 141.48) scale(1.42 -1.47)" gradientUnits="userSpaceOnUse">
      <stop offset="0" stop-color="#ffaeae"/>
      <stop offset="1" stop-color="#ffaeae" stop-opacity="0"/>
    </radialGradient>
    <radialGradient id="radial-gradient1" cx="144.92" cy="116.5" fx="144.92" fy="116.5" r="2.84" gradientTransform="translate(231.65 138.49) rotate(171.7) scale(1.42 1.32) skewX(-9.53)" gradientUnits="userSpaceOnUse">
      <stop offset="0" stop-color="#ffaeae"/>
      <stop offset="1" stop-color="#ffaeae" stop-opacity="0"/>
    </radialGradient>
    <radialGradient id="radial-gradient2" cx="422.7" cy="158.97" fx="422.7" fy="158.97" r="2.84" gradientTransform="translate(-577.82 138.49) rotate(8.3) scale(1.42 -1.32) skewX(-9.53)" gradientUnits="userSpaceOnUse">
      <stop offset="0" stop-color="#ffaeae"/>
      <stop offset="1" stop-color="#ffaeae" stop-opacity="0"/>
    </radialGradient>
  </defs>
  <g class="st1">
    <g class="st1">
      <path class="st5" d="M1.67,31.17c-.2,0-.39-.03-.56-.08-.17-.05-.33-.13-.47-.24s-.27-.24-.38-.4l.39-.45c.17.25.34.42.5.52s.35.14.57.14c.13,0,.26-.02.37-.06.11-.04.2-.1.26-.18.06-.07.1-.16.1-.26,0-.06-.01-.12-.03-.18-.02-.06-.05-.11-.1-.15s-.1-.09-.17-.13c-.07-.04-.15-.07-.24-.1s-.2-.06-.32-.08c-.19-.04-.36-.09-.5-.15-.14-.06-.26-.14-.36-.24-.1-.1-.17-.21-.21-.33-.05-.12-.07-.26-.07-.41s.03-.29.1-.42c.07-.13.16-.24.27-.33.12-.09.25-.17.41-.22.16-.05.32-.08.51-.08.19,0,.37.03.53.07.16.05.3.12.43.22.12.1.23.22.31.36l-.4.4c-.07-.12-.15-.22-.24-.3-.09-.08-.19-.14-.29-.18-.11-.04-.22-.06-.34-.06-.14,0-.26.02-.36.06-.1.04-.18.1-.24.18-.06.08-.09.17-.09.27,0,.07.01.14.04.2.03.06.07.12.13.17s.14.09.24.13c.1.04.22.07.36.1.19.04.37.1.52.16.15.07.28.14.39.23s.19.19.24.3c.05.11.08.23.08.36,0,.24-.05.44-.16.62-.11.17-.27.31-.47.4s-.44.14-.72.14Z"/>
      <path class="st5" d="M4.37,31.12v-3.72h2.35v.55h-1.77v2.62h1.77v.55h-2.35ZM4.63,29.49v-.55h1.79v.55h-1.79Z"/>
      <path class="st5" d="M8.17,31.12v-3.72h.57v3.17h1.75v.55h-2.32Z"/>
      <path class="st5" d="M11.89,31.12v-3.72h.57v3.72h-.57ZM12.15,27.95v-.55h2.16v.55h-2.16ZM12.15,29.54v-.55h1.92v.55h-1.92Z"/>
      <path class="st5" d="M18.35,31.12v-3.17h-1.04v-.55h2.69v.55h-1.07v3.17h-.57Z"/>
      <path class="st5" d="M22.64,31.17c-.26,0-.5-.05-.73-.14-.22-.1-.42-.23-.58-.4-.16-.17-.29-.37-.38-.61s-.14-.49-.14-.76.05-.53.14-.76c.09-.23.22-.43.38-.61.17-.17.36-.31.58-.4.22-.1.46-.14.73-.14s.5.05.73.14c.22.1.42.23.58.4.17.17.29.38.38.61.09.23.14.49.14.76s-.04.53-.14.76c-.09.23-.22.43-.38.61-.16.17-.36.31-.58.4-.22.1-.46.14-.73.14ZM22.64,30.61c.18,0,.35-.03.5-.1s.28-.16.39-.28c.11-.12.2-.27.26-.43s.09-.34.09-.54-.03-.38-.09-.54-.15-.31-.26-.43-.24-.22-.39-.28-.32-.1-.5-.1-.35.03-.5.1c-.15.07-.28.16-.39.28-.11.12-.2.26-.26.43-.06.17-.09.35-.09.54s.03.38.09.54c.06.17.15.31.26.43.11.12.24.21.39.28.15.07.32.1.5.1Z"/>
      <path class="st5" d="M28.95,31.17c-.2,0-.39-.03-.56-.08-.17-.05-.33-.13-.47-.24-.14-.11-.26-.24-.38-.4l.39-.45c.17.25.34.42.5.52.16.1.35.14.57.14.13,0,.26-.02.37-.06.11-.04.2-.1.26-.18.06-.07.1-.16.1-.26,0-.06-.01-.12-.03-.18-.02-.06-.05-.11-.1-.15s-.1-.09-.17-.13c-.07-.04-.15-.07-.24-.1-.09-.03-.2-.06-.32-.08-.19-.04-.36-.09-.5-.15-.14-.06-.26-.14-.36-.24s-.17-.21-.21-.33c-.05-.12-.07-.26-.07-.41s.03-.29.1-.42c.07-.13.16-.24.27-.33.12-.09.25-.17.41-.22.16-.05.32-.08.51-.08.19,0,.37.03.53.07.16.05.3.12.42.22.12.1.23.22.31.36l-.4.4c-.07-.12-.15-.22-.24-.3-.09-.08-.19-.14-.29-.18-.11-.04-.22-.06-.34-.06-.14,0-.26.02-.36.06s-.18.1-.24.18c-.06.08-.09.17-.09.27,0,.07.01.14.04.2.03.06.07.12.13.17s.14.09.24.13c.1.04.22.07.36.1.2.04.37.1.52.16s.28.14.39.23c.11.09.19.19.24.3.05.11.08.23.08.36,0,.24-.05.44-.17.62s-.27.31-.47.4c-.2.09-.44.14-.72.14Z"/>
      <path class="st5" d="M31.65,31.12v-3.72h2.35v.55h-1.77v2.62h1.77v.55h-2.35ZM31.91,29.49v-.55h1.79v.55h-1.79Z"/>
      <path class="st5" d="M35.45,31.12v-3.72h.57v3.17h1.75v.55h-2.32Z"/>
      <path class="st5" d="M39.17,31.12v-3.72h.57v3.72h-.57ZM39.42,27.95v-.55h2.16v.55h-2.16ZM39.42,29.54v-.55h1.92v.55h-1.92Z"/>
    </g>
  </g>
  <g class="st1">
    <g class="st1">
      <path class="st5" d="M11.72,37.36v-2.23h-.77v-.46h2.06v.46h-.79v2.23h-.5Z"/>
      <path class="st5" d="M13.88,37.36v-2.69h.5v2.69h-.5ZM14.09,36.25v-.47h1.76v.47h-1.76ZM15.61,37.36v-2.69h.5v2.69h-.5Z"/>
      <path class="st5" d="M17.22,37.36v-2.69h1.76v.45h-1.27v1.78h1.28v.45h-1.77ZM17.45,36.21v-.45h1.33v.45h-1.33Z"/>
      <path class="st5" d="M20,37.36v-2.69h1.17c.16,0,.31.04.44.11.13.08.24.18.32.31s.12.27.12.44-.04.3-.12.42-.18.23-.31.31c-.13.08-.28.11-.44.11h-.68v.99h-.49ZM20.49,35.94h.68c.07,0,.14-.02.19-.05s.1-.08.13-.14.05-.13.05-.2c0-.08-.02-.16-.06-.22s-.09-.11-.16-.15c-.07-.04-.15-.05-.24-.05h-.6v.82ZM21.56,37.36l-.68-1.21.51-.1.76,1.31h-.59Z"/>
      <path class="st5" d="M22.76,37.36l1.05-2.69h.47l1.04,2.69h-.52l-.58-1.53s-.03-.08-.05-.15c-.02-.07-.05-.14-.07-.22s-.05-.15-.07-.22c-.02-.07-.04-.12-.05-.15h.1s-.03.1-.05.17c-.02.06-.04.13-.07.2-.02.07-.04.14-.07.2-.02.06-.04.12-.06.17l-.58,1.52h-.5ZM23.24,36.75l.17-.43h1.23l.18.43h-1.58Z"/>
      <path class="st5" d="M26.13,37.36v-2.69h1.12c.15,0,.29.04.42.11s.22.17.3.3.11.27.11.43-.04.31-.11.44-.17.23-.3.31c-.12.08-.26.12-.42.12h-.62v.98h-.5ZM26.63,35.92h.58c.06,0,.12-.02.17-.05.05-.04.09-.08.13-.14s.05-.12.05-.2-.02-.14-.05-.2-.07-.1-.13-.14c-.05-.03-.11-.05-.17-.05h-.58v.78Z"/>
      <path class="st5" d="M29.7,37.36v-1.34l.03.19-1.09-1.54h.58l.83,1.19h-.18s.75-1.19.75-1.19h.56l-1.04,1.58.06-.26v1.37h-.5Z"/>
    </g>
  </g>
  <g>
    <g>
      <ellipse class="st0" cx="21.11" cy="12.95" rx="4.02" ry="4.17"/>
      <path class="st2" d="M27.22,13.2c-.07,2.09,1.66,3.53,3.87,3.21,2.21-.32,4.06-2.28,4.13-4.38s-1.66-3.53-3.87-3.21-4.06,2.28-4.13,4.38Z"/>
      <path class="st3" d="M15,13.2c.07,2.09-1.66,3.53-3.87,3.21s-4.06-2.28-4.13-4.38c-.07-2.09,1.66-3.53,3.87-3.21s4.06,2.28,4.13,4.38Z"/>
    </g>
    <g>
      <path class="st4" d="M21,20.08c-1.35.64-2.86,1-4.45,1-5.74,0-10.39-4.65-10.39-10.39S10.81.3,16.55.3c1.59,0,3.1.36,4.45,1"/>
      <path class="st4" d="M24.29,17.62c-.92,1.02-2.03,1.86-3.29,2.46"/>
      <path class="st4" d="M17.71,3.76c.92-1.02,2.03-1.86,3.29-2.46"/>
      <path class="st4" d="M21,1.3c1.35-.64,2.86-1,4.45-1,5.74,0,10.39,4.65,10.39,10.39s-4.65,10.39-10.39,10.39c-1.59,0-3.1-.36-4.45-1"/>
    </g>
    <path class="st4" d="M21,10.63c.48,0,1.15-.08,1.62-.27"/>
    <path class="st4" d="M31.57,10.11c-.94.51-1.91.51-2.99.17"/>
    <path class="st4" d="M32.17,7.39c-1.16-.77-3.43-.67-4.8.19-2.45,1.52-.78,4.85.33,6,1.03,1.07-1.22,1.79-2.52,1.66"/>
    <path class="st4" d="M23.19,7.52c-.62-.37-1.47-.51-2.19-.52"/>
    <path class="st4" d="M21,10.63c-.48,0-1.15-.08-1.62-.27"/>
    <path class="st4" d="M10.43,10.11c.94.51,1.91.51,2.99.17"/>
    <path class="st4" d="M9.83,7.39c1.16-.77,3.43-.67,4.8.19,2.45,1.52.78,4.85-.33,6-1.03,1.07,1.22,1.79,2.52,1.66"/>
    <path class="st4" d="M18.81,7.52c.62-.37,1.47-.51,2.19-.52"/>
  </g>
</svg>