<?xml version="1.0" encoding="UTF-8"?><svg id="Isolation_Mode" xmlns="http://www.w3.org/2000/svg" xmlns:xlink="http://www.w3.org/1999/xlink" viewBox="0 0 30.67 21.77"><defs><style>.cls-1{fill:url(#radial-gradient-3);}.cls-1,.cls-2,.cls-3{opacity:.3;}.cls-2{fill:url(#radial-gradient-2);}.cls-3{fill:url(#radial-gradient);}.cls-4{fill:none;stroke:#3a2300;stroke-linecap:round;stroke-linejoin:round;}</style><radialGradient id="radial-gradient" cx="15.25" cy="2.88" fx="15.25" fy="2.88" r="2.84" gradientTransform="translate(-6.37 8.72) scale(1.42 1.47)" gradientUnits="userSpaceOnUse"><stop offset="0" stop-color="#ffd4d6"/><stop offset=".16" stop-color="#fed4d6" stop-opacity=".99"/><stop offset=".29" stop-color="#fcd5d6" stop-opacity=".95"/><stop offset=".41" stop-color="#f8d6d6" stop-opacity=".88"/><stop offset=".52" stop-color="#f3d8d6" stop-opacity=".79"/><stop offset=".63" stop-color="#ecdad6" stop-opacity=".66"/><stop offset=".74" stop-color="#e3ddd6" stop-opacity=".51"/><stop offset=".84" stop-color="#d9e1d7" stop-opacity=".34"/><stop offset=".94" stop-color="#cee5d7" stop-opacity=".14"/><stop offset="1" stop-color="#c7e8d8" stop-opacity="0"/></radialGradient><radialGradient id="radial-gradient-2" cx="475.98" cy="-58.4" fx="475.98" fy="-58.4" gradientTransform="translate(693.59 -7.22) rotate(171.7) scale(1.42 -1.32) skewX(9.53)" xlink:href="#radial-gradient"/><radialGradient id="radial-gradient-3" cx="475.98" cy="-58.4" fx="475.98" fy="-58.4" r="2.84" gradientTransform="translate(-663.09 -7.22) rotate(8.3) scale(1.42 1.32) skewX(9.53)" xlink:href="#radial-gradient"/></defs><ellipse class="cls-3" cx="15.25" cy="12.95" rx="4.02" ry="4.17"/><path class="cls-2" d="M21.36,13.2c-.07,2.09,1.66,3.53,3.87,3.21,2.21-.32,4.06-2.28,4.13-4.38.07-2.09-1.66-3.53-3.87-3.21s-4.06,2.28-4.13,4.38Z"/><path class="cls-1" d="M9.14,13.2c.07,2.09-1.66,3.53-3.87,3.21-2.21-.32-4.06-2.28-4.13-4.38-.07-2.09,1.66-3.53,3.87-3.21s4.06,2.28,4.13,4.38Z"/><path class="cls-4" d="M15.34,20.28c-1.35.64-2.86,1-4.45,1C5.15,21.27.5,16.62.5,10.89S5.15.5,10.89.5c1.59,0,3.1.36,4.45,1"/><path class="cls-4" d="M17.64,18.78c-.69.59-1.47,1.1-2.3,1.49"/><path class="cls-4" d="M13.04,2.99c.69-.59,1.47-1.1,2.3-1.49"/><path class="cls-4" d="M15.34,1.5c1.35-.64,2.86-1,4.45-1,5.74,0,10.39,4.65,10.39,10.39s-4.65,10.39-10.39,10.39c-1.59,0-3.1-.36-4.45-1"/><path class="cls-4" d="M25.91,10.31c-.94.51-1.91.51-2.99.17"/><path class="cls-4" d="M26.52,7.59c-1.16-.77-3.43-.67-4.8.19-2.45,1.52-.78,4.85.33,6,1.03,1.07-1.22,1.79-2.52,1.66"/><path class="cls-4" d="M13.72,10.56c.47.18,1.14.27,1.62.27.48,0,1.15-.08,1.62-.27"/><path class="cls-4" d="M4.77,10.31c.94.51,1.91.51,2.99.17"/><path class="cls-4" d="M4.17,7.59c1.16-.77,3.43-.67,4.8.19,2.45,1.52.78,4.85-.33,6-1.03,1.07,1.22,1.79,2.52,1.66"/><path class="cls-4" d="M13.15,7.72c.62-.37,1.47-.51,2.19-.52h0c.72.01,1.56.15,2.19.52"/></svg>