<?xml version="1.0" encoding="UTF-8"?>
<svg id="Isolation_Mode" xmlns="http://www.w3.org/2000/svg" xmlns:xlink="http://www.w3.org/1999/xlink" version="1.1" viewBox="0 0 30.67 21.77">
  <!-- Generator: Adobe Illustrator 30.2.1, SVG Export Plug-In . SVG Version: 2.1.1 Build 1)  -->
  <defs>
    <style>
      .st0 {
        fill: url(#radial-gradient);
      }

      .st0, .st1, .st2 {
        opacity: .3;
      }

      .st3 {
        fill: none;
      }

      .st3, .st4 {
        stroke: #3a2300;
        stroke-linecap: round;
        stroke-linejoin: round;
      }

      .st4 {
        fill: #c7e8d8;
      }

      .st1 {
        fill: url(#radial-gradient2);
      }

      .st2 {
        fill: url(#radial-gradient1);
      }
    </style>
    <radialGradient id="radial-gradient" cx="16.69" cy="69.32" fx="16.69" fy="69.32" r="2.84" gradientTransform="translate(-8.32 -88.93) scale(1.42 1.47)" gradientUnits="userSpaceOnUse">
      <stop offset="0" stop-color="#ffaeae"/>
      <stop offset="1" stop-color="#ffaeae" stop-opacity="0"/>
    </radialGradient>
    <radialGradient id="radial-gradient1" cx="489.07" cy="-7.3" fx="489.07" fy="-7.3" r="2.84" gradientTransform="translate(714.51 -78.25) rotate(171.7) scale(1.42 -1.32) skewX(9.53)" xlink:href="#radial-gradient"/>
    <radialGradient id="radial-gradient2" cx="482.53" cy="-6.29" fx="482.53" fy="-6.29" r="2.84" gradientTransform="translate(-674.66 -78.25) rotate(8.3) scale(1.42 1.32) skewX(9.53)" xlink:href="#radial-gradient"/>
  </defs>
  <path class="st4" d="M15.34,20.28c-1.35.64-2.86,1-4.45,1-5.74-.01-10.39-4.66-10.39-10.39S5.15.5,10.89.5c1.59,0,3.1.36,4.45,1"/>
  <path class="st4" d="M15.34,1.5c1.35-.64,2.86-1,4.45-1,5.74,0,10.39,4.65,10.39,10.39s-4.65,10.39-10.39,10.39c-1.59,0-3.1-.36-4.45-1"/>
  <g>
    <ellipse class="st0" cx="15.34" cy="12.95" rx="4.02" ry="4.17"/>
    <path class="st2" d="M21.44,13.2c-.07,2.09,1.66,3.53,3.87,3.21,2.21-.32,4.06-2.28,4.13-4.38s-1.66-3.53-3.87-3.21-4.06,2.28-4.13,4.38Z"/>
    <path class="st1" d="M9.23,13.2c.07,2.09-1.66,3.53-3.87,3.21-2.21-.32-4.06-2.28-4.13-4.38-.07-2.09,1.66-3.53,3.87-3.21s4.06,2.28,4.13,4.38Z"/>
  </g>
  <path class="st3" d="M17.64,18.78c-.69.59-1.47,1.1-2.3,1.49"/>
  <path class="st3" d="M13.04,2.99c.69-.59,1.47-1.1,2.3-1.49"/>
  <path class="st3" d="M25.91,10.31c-.94.51-1.91.51-2.99.17"/>
  <path class="st3" d="M26.52,7.59c-1.16-.77-3.43-.67-4.8.19-2.45,1.52-.78,4.85.33,6,1.03,1.07-1.22,1.79-2.52,1.66"/>
  <path class="st3" d="M13.72,10.56c.47.18,1.14.27,1.62.27s1.15-.08,1.62-.27"/>
  <path class="st3" d="M4.77,10.31c.94.51,1.91.51,2.99.17"/>
  <path class="st3" d="M4.17,7.59c1.16-.77,3.43-.67,4.8.19,2.45,1.52.78,4.85-.33,6-1.03,1.07,1.22,1.79,2.52,1.66"/>
  <path class="st3" d="M13.15,7.72c.62-.37,1.47-.51,2.19-.52h0c.72.01,1.56.15,2.19.52"/>
</svg>