<?xml version="1.0" encoding="UTF-8"?>
<svg id="Isolation_Mode" xmlns="http://www.w3.org/2000/svg" xmlns:xlink="http://www.w3.org/1999/xlink" version="1.1" viewBox="0 0 42 38.3">
  <!-- Generator: Adobe Illustrator 30.2.1, SVG Export Plug-In . SVG Version: 2.1.1 Build 1)  -->
  <defs>
    <style>
      .st0 {
        fill: url(#radial-gradient);
      }

      .st0, .st1, .st2 {
        opacity: .3;
      }

      .st3 {
        fill: none;
        stroke: #3a2300;
        stroke-linecap: round;
        stroke-linejoin: round;
        stroke-width: .6px;
      }

      .st1 {
        fill: url(#radial-gradient2);
      }

      .st2 {
        fill: url(#radial-gradient1);
      }
    </style>
    <radialGradient id="radial-gradient" cx="21.05" cy="-7.79" fx="21.05" fy="-7.79" r="2.84" gradientTransform="translate(-8.73 24.4) scale(1.42 1.47)" gradientUnits="userSpaceOnUse">
      <stop offset="0" stop-color="#ffaeae"/>
      <stop offset="1" stop-color="#ffaeae" stop-opacity="0"/>
    </radialGradient>
    <radialGradient id="radial-gradient1" cx="480.67" cy="-66.67" fx="480.67" fy="-66.67" gradientTransform="translate(705.68 2.87) rotate(171.7) scale(1.42 -1.32) skewX(9.53)" xlink:href="#radial-gradient"/>
    <radialGradient id="radial-gradient2" cx="480.95" cy="-66.71" fx="480.95" fy="-66.71" r="2.84" gradientTransform="translate(-663.85 2.87) rotate(8.3) scale(1.42 1.32) skewX(9.53)" xlink:href="#radial-gradient"/>
  </defs>
  <g>
    <ellipse class="st0" cx="21.11" cy="12.95" rx="4.02" ry="4.17"/>
    <path class="st2" d="M27.22,13.2c-.07,2.09,1.66,3.53,3.87,3.21,2.21-.32,4.06-2.28,4.13-4.38s-1.66-3.53-3.87-3.21-4.06,2.28-4.13,4.38Z"/>
    <path class="st1" d="M15,13.2c.07,2.09-1.66,3.53-3.87,3.21-2.21-.32-4.06-2.28-4.13-4.38-.07-2.09,1.66-3.53,3.87-3.21s4.06,2.28,4.13,4.38Z"/>
  </g>
  <g>
    <path class="st3" d="M21,20.08c-1.35.64-2.86,1-4.45,1-5.74,0-10.39-4.65-10.39-10.39S10.81.3,16.55.3c1.59,0,3.1.36,4.45,1"/>
    <path class="st3" d="M21,1.3c1.35-.64,2.86-1,4.45-1,5.74,0,10.39,4.65,10.39,10.39s-4.65,10.39-10.39,10.39c-1.59,0-3.1-.36-4.45-1"/>
  </g>
  <path class="st3" d="M31.57,10.11c-.94.51-1.91.51-2.99.17"/>
  <path class="st3" d="M32.17,7.39c-1.16-.77-3.43-.67-4.8.19-2.45,1.52-.78,4.85.33,6,1.03,1.07-1.22,1.79-2.52,1.66"/>
  <path class="st3" d="M10.43,10.11c.94.51,1.91.51,2.99.17"/>
  <path class="st3" d="M9.83,7.39c1.16-.77,3.43-.67,4.8.19,2.45,1.52.78,4.85-.33,6-1.03,1.07,1.22,1.79,2.52,1.66"/>
</svg>